<svg id="Ebene_1" data-name="Ebene 1" xmlns="http://www.w3.org/2000/svg" viewBox="0 0 1060.27 177.33"><defs><style>.cls-1{fill:#41b59e;}.cls-2{fill:#b3dbcd;}.cls-2,.cls-3,.cls-4{fill-rule:evenodd;}.cls-3{fill:#47b49a;}.cls-4{fill:#358e7c;}.cls-5{fill:#d9544f;}</style></defs><path class="cls-1" d="M223.56,72c-4-3.56-7.37-3.8-8.87-3.8A6.64,6.64,0,0,0,209.53,70a4.75,4.75,0,0,0-1.34,3.33,3.67,3.67,0,0,0,1.19,2.93c1.26,1.19,3.09,1.67,6.65,3l4,1.51a21.16,21.16,0,0,1,7.21,4,13.16,13.16,0,0,1,3.89,9.83c0,5.46-1.9,10.22-4.68,13.07-4.67,4.91-11.49,5.39-15,5.39A22.29,22.29,0,0,1,201,110.86a33.59,33.59,0,0,1-7.77-5.78l6.34-8.72a32.51,32.51,0,0,0,4.91,4,12.26,12.26,0,0,0,6.66,1.9,8.44,8.44,0,0,0,5.55-1.82,5.47,5.47,0,0,0,1.9-4.28,4.65,4.65,0,0,0-1.82-3.8c-1.43-1.19-4.68-2.38-6.19-2.93L206.21,88c-2.46-.87-5.31-2-7.37-4.2-2.78-2.93-3.17-6.65-3.17-9.19a16.24,16.24,0,0,1,4.59-11.89c3.73-3.8,8.17-4.83,13.08-4.83A25.53,25.53,0,0,1,229,63.08Z"/><path class="cls-1" d="M278.08,110.23a24.65,24.65,0,0,1-11.65,2.85c-9.75,0-16.32-3.33-20.76-7.69a28.31,28.31,0,0,1,0-39.93,28,28,0,0,1,19.73-7.61,31.43,31.43,0,0,1,12.68,2.93V74.89a16.74,16.74,0,0,0-12.36-5.63,14.84,14.84,0,0,0-10.78,4.12,16.93,16.93,0,0,0-5,12.2,15.45,15.45,0,0,0,16,16.09c3.17,0,7.45-.87,12.13-5.47Z"/><path class="cls-1" d="M300,79.17H321.1V59h12.21v52.85H321.1V89.47H300v22.42H287.82V59H300Z"/><path class="cls-1" d="M389.57,90.34c0,5.07-.64,11.33-5.87,16.72-5.07,5.23-10.93,6-16.48,6s-11.41-.79-16.48-6c-5.23-5.39-5.86-11.65-5.86-16.72V59h12.2V90c0,2.3.16,6.18,2.77,8.88a11.19,11.19,0,0,0,14.74,0c2.62-2.7,2.77-6.58,2.77-8.88V59h12.21Z"/><path class="cls-1" d="M413.34,59v42.55h16.4v10.3h-28.6V59Z"/><path class="cls-1" d="M463.9,72c-4-3.56-7.37-3.8-8.88-3.8A6.63,6.63,0,0,0,449.87,70a4.75,4.75,0,0,0-1.35,3.33,3.7,3.7,0,0,0,1.19,2.93c1.27,1.19,3.09,1.67,6.66,3l4,1.51a21.16,21.16,0,0,1,7.21,4,13.19,13.19,0,0,1,3.88,9.83c0,5.46-1.9,10.22-4.67,13.07-4.68,4.91-11.49,5.39-15,5.39a22.34,22.34,0,0,1-10.46-2.22,33.75,33.75,0,0,1-7.76-5.78l6.34-8.72a31.56,31.56,0,0,0,4.91,4,12.26,12.26,0,0,0,6.66,1.9,8.4,8.4,0,0,0,5.54-1.82,5.47,5.47,0,0,0,1.9-4.28,4.65,4.65,0,0,0-1.82-3.8c-1.43-1.19-4.67-2.38-6.18-2.93L446.54,88c-2.45-.87-5.31-2-7.37-4.2-2.77-2.93-3.17-6.65-3.17-9.19a16.25,16.25,0,0,1,4.6-11.89c3.72-3.8,8.16-4.83,13.07-4.83a25.51,25.51,0,0,1,15.69,5.23Z"/><path class="cls-1" d="M527.05,65.54a28.11,28.11,0,0,1,0,39.77c-4.91,4.76-11.57,7.77-20.44,7.77-9.91,0-16.64-4-20.61-7.77a27,27,0,0,1-8.24-19.65,29.51,29.51,0,0,1,8.16-20c3.57-3.57,10.15-7.77,20.69-7.77C514.85,57.85,521.74,60.39,527.05,65.54ZM495,73.62a16.18,16.18,0,0,0-4.68,12,15.77,15.77,0,0,0,4.84,11.89,15.53,15.53,0,0,0,11.33,4.36,16,16,0,0,0,11.73-4.52c2.05-2,4.59-5.7,4.59-11.81a16.69,16.69,0,0,0-4.59-11.88,17,17,0,0,0-11.65-4.52A16.22,16.22,0,0,0,495,73.62Z"/><path class="cls-1" d="M573.72,69.34H556.61V79.56h15.85v10.3H556.61v22H544.4V59h29.32Z"/><path class="cls-1" d="M601.22,69.34v42.55H589V69.34H577.53V59h35.18v10.3Z"/><path class="cls-1" d="M626.34,59l11.25,35,11.25-35h8.4l11.25,35,11.26-35h12.67l-18,52.85h-10.3L653,79.8,642,111.89h-10.3L613.66,59Z"/><path class="cls-1" d="M726.26,101.91h-20l-4,10H689.57L710.89,59h11.17l20.84,52.85H730.22Zm-3.33-9.35-6.49-17.75-6.58,17.75Z"/><path class="cls-1" d="M767.39,59c6.73,0,10.93,2.22,13.47,4.59,2.22,2.14,4.59,5.95,4.59,11.81a14.45,14.45,0,0,1-4.12,10.78,16.57,16.57,0,0,1-7.37,4l16.25,21.63h-14.9L761.05,91.05v20.84h-12.2V59Zm-6.34,24h2.77c2.22,0,5.23-.24,7.29-2.3a7.13,7.13,0,0,0,2-5.15,6.41,6.41,0,0,0-2.45-5.39c-2-1.5-5.15-1.66-6.74-1.66h-2.85Z"/><path class="cls-1" d="M826.82,69.34H809.15V79.56H826v10.3h-16.8v11.73h17.67v10.3H796.94V59h29.88Z"/><path class="cls-2" d="M124.78,156.7A74.11,74.11,0,0,0,147.49,55.27L107.28,80.76a25.9,25.9,0,0,1-12.71,37.88c16.71,7.85,25.71,20,29.59,35.27.23.93.44,1.85.62,2.79Z"/><path class="cls-3" d="M23.79,55.27A72.79,72.79,0,0,1,85.65,20.8c25.91,0,48.88,14,61.84,34.47l-14.9,22.12-25.31,3.37a25.44,25.44,0,0,0-43.27,0L23.79,55.27Z"/><path class="cls-4" d="M47,157A74.11,74.11,0,0,1,23.79,55.27l26.09,2.5L64,80.76a25.89,25.89,0,0,0,12.7,37.87h0C59.22,126.84,50.18,139.79,46.6,156L47,157Z"/><path class="cls-5" d="M855.61,60.43h9.83c4.84,0,11.71.51,17.78,5.64a23.51,23.51,0,0,1,8.25,18.51A23,23,0,0,1,883,103.09c-4.41,3.76-9,5.56-17.64,5.56h-9.76ZM861,103.59h4.7c3.83,0,9.11-.43,13.8-4.33A18.45,18.45,0,0,0,886,84.58c0-11.57-8.1-19.09-20.31-19.09H861Z"/><path class="cls-5" d="M926.6,101a17.7,17.7,0,0,1-3.68,4.84,14.57,14.57,0,0,1-10,3.69c-7.23,0-14.82-4.55-14.82-15.69,0-9,5.49-15.9,14.53-15.9A13.42,13.42,0,0,1,924,83.42c1.88,2.68,3,7.3,2.82,11.28H903.47c.07,6.22,4.34,10.19,9.54,10.19a9.16,9.16,0,0,0,6.15-2.16,12.21,12.21,0,0,0,3.11-4.12Zm-5.13-10.63c-.87-4.7-4.41-7.8-8.82-7.8a9.12,9.12,0,0,0-8.82,7.8Z"/><path class="cls-5" d="M934.77,78.65H940v3.18a8.7,8.7,0,0,1,7.45-3.9,9,9,0,0,1,8.17,4.84,10,10,0,0,1,9-4.84c8.89,0,9.76,7.44,9.76,11.71v19h-5.2V90.44c0-3.4-.44-7.88-5.35-7.88-6,0-6.65,5.78-6.65,9.39v16.7H952V90.87c0-2.1.07-8.31-5.42-8.31-5.93,0-6.58,6.14-6.58,9.76v16.33h-5.21Z"/><path class="cls-5" d="M982.42,93.76c0-9.11,6.72-15.83,15.9-15.83s15.91,6.72,15.91,15.83-6.8,15.76-15.91,15.76S982.42,102.87,982.42,93.76Zm5.35,0c0,7.38,5.21,11.13,10.55,11.13s10.56-3.83,10.56-11.13-5.06-11.2-10.56-11.2S987.77,86.46,987.77,93.76Z"/></svg>